<svg width="33.890625" height="32.330566" viewBox="0 0 33.8906 32.3306" fill="none" xmlns="http://www.w3.org/2000/svg" xmlns:xlink="http://www.w3.org/1999/xlink">
	<desc>
			Created with Pixso.
	</desc>
	<defs/>
	<path id="Star 6" d="M15.99 0.69L12.67 10.89C12.54 11.3 12.16 11.58 11.72 11.58L1 11.58C0.03 11.58 -0.38 12.82 0.41 13.39L9.09 19.69C9.44 19.95 9.58 20.4 9.45 20.81L6.14 31.01C5.84 31.93 6.89 32.7 7.67 32.13L16.35 25.83C16.7 25.57 17.18 25.57 17.53 25.83L26.21 32.13C26.99 32.7 28.04 31.93 27.75 31.01L24.43 20.81C24.3 20.4 24.44 19.95 24.79 19.69L33.47 13.39C34.26 12.82 33.85 11.58 32.88 11.58L22.16 11.58C21.72 11.58 21.34 11.3 21.21 10.89L17.89 0.69C17.59 -0.24 16.29 -0.24 15.99 0.69Z" fill="#111111" fill-opacity="0" fill-rule="evenodd"/>
	<path id="Star 6" d="M12.67 10.89C12.54 11.3 12.16 11.58 11.72 11.58L1 11.58C0.03 11.58 -0.38 12.82 0.41 13.39L9.09 19.69C9.44 19.95 9.58 20.4 9.45 20.81L6.14 31.01C5.84 31.93 6.89 32.7 7.67 32.13L16.35 25.83C16.7 25.57 17.18 25.57 17.53 25.83L26.21 32.13C26.99 32.7 28.04 31.93 27.75 31.01L24.43 20.81C24.3 20.4 24.44 19.95 24.79 19.69L33.47 13.39C34.26 12.82 33.85 11.58 32.88 11.58L22.16 11.58C21.72 11.58 21.34 11.3 21.21 10.89L17.89 0.69C17.59 -0.24 16.29 -0.24 15.99 0.69L12.67 10.89ZM13.63 11.2C13.36 12.02 12.59 12.58 11.72 12.58L1 12.58L9.67 18.88C10.38 19.39 10.67 20.3 10.4 21.12L7.09 31.32L15.76 25.02C16.47 24.51 17.41 24.51 18.12 25.02L26.79 31.32L23.48 21.12C23.21 20.3 23.5 19.39 24.21 18.88L32.88 12.58L22.16 12.58C21.29 12.58 20.52 12.02 20.25 11.2L16.94 0.99L13.63 11.2Z" fill="#111111" fill-opacity="1.000000" fill-rule="evenodd"/>
</svg>
